<?xml version="1.0" encoding="UTF-8"?>
<!DOCTYPE svg PUBLIC "-//W3C//DTD SVG 1.1//EN" "http://www.w3.org/Graphics/SVG/1.1/DTD/svg11.dtd">
<!-- Creator: CorelDRAW -->
<svg xmlns="http://www.w3.org/2000/svg" xml:space="preserve" width="5mm" height="5mm" version="1.1" style="shape-rendering:geometricPrecision; text-rendering:geometricPrecision; image-rendering:optimizeQuality; fill-rule:evenodd; clip-rule:evenodd"
viewBox="0 0 500 500"
 xmlns:xlink="http://www.w3.org/1999/xlink"
 xmlns:xodm="http://www.corel.com/coreldraw/odm/2003">
 <defs>
  <style type="text/css">
   <![CDATA[
    .fil0 {fill:#201E1E}
    .fil1 {fill:#FDFDFD}
   ]]>
  </style>
 </defs>
 <g id="Camada_x0020_1">
  <metadata id="CorelCorpID_0Corel-Layer"/>
  <g id="_2685171590384">
   <path class="fil0" d="M89.35 61.87c0.94,32.2 -9.87,100.92 17.38,124.62 14.56,12.67 63.96,39.53 84.68,53.21 5.37,3.55 5.2,4.27 12.73,6.73l0.55 23.1c-45.43,42.66 -117.07,37.25 -117.35,117.18 -0.07,21.14 -2.11,37.95 0.5,58.86 -20.54,2.14 -20.5,-1.19 -20.4,19.81 0.07,12.57 -1.99,25.7 3.2,38.61l346.85 -0.14c6.69,-6.22 3.81,-46.22 0.7,-54.89l-15.17 -0.76c-7.15,-39.19 15.04,-92.13 -22.36,-119.23 -6.82,-4.94 -15.58,-9.74 -23.11,-14.18l-70.84 -44.54c-0.89,-17.62 -3.62,-19.7 9.74,-27.66 21.16,-12.61 75.96,-42.94 89.02,-55.6 25.39,-24.62 21.34,-88.89 18.96,-124.1l16.94 -2.36c4.26,-11.88 5.4,-42.69 -0.75,-56.53l-348.95 0.21c-1.17,9.51 -0.92,23.24 -1.25,34.49 -0.78,27.02 4.03,16.62 18.93,23.17zm28.98 383.96l251.03 2.35c4.41,-11.36 1.82,-48.1 1.8,-62.58 -0.03,-31.26 -0.77,-25.54 -33.38,-46.53l-73.67 -44.95c-11.27,-8.08 -8.9,-20.18 -8.71,-32.61 0.57,-37.66 -2.8,-29.13 30.98,-48.76 20.04,-11.65 39.05,-23.22 58.41,-35.14 24.66,-15.18 28.51,-21.44 28.28,-49.58 -0.17,-21.03 1.08,-44.44 0.28,-65.04l-252.99 -2.79c1.72,94.18 -12.34,91.71 26.23,114.58l48.98 30.25c31.43,19.67 40.35,20.05 40.71,40.86 0.93,53.18 9.21,36.77 -80.86,89.95 -23.95,14.14 -35.55,20.11 -36.94,45.51 -1.06,19.33 -1.39,46.92 -0.15,64.48z"/>
   <path class="fil1" d="M119.1 446.2l249.52 2.33c4.39,-11.29 1.81,-47.81 1.79,-62.2 -0.03,-31.08 -0.76,-25.39 -33.18,-46.25l-73.23 -44.69c-11.2,-8.03 -8.85,-20.05 -8.66,-32.4 0.57,-37.44 -2.78,-28.96 30.8,-48.47 19.92,-11.58 38.81,-23.09 58.06,-34.93 24.5,-15.09 28.33,-21.31 28.11,-49.29 -0.17,-20.9 1.07,-44.16 0.27,-64.64l-251.46 -2.77c1.7,93.61 -12.27,91.15 26.07,113.89l48.68 30.07c31.24,19.54 40.11,19.92 40.47,40.6 0.92,52.86 9.16,36.56 -80.38,89.42 -23.8,14.05 -35.34,19.98 -36.71,45.23 -1.05,19.22 -1.38,46.64 -0.15,64.1z"/>
   <path class="fil0" d="M152.6 433.6c9.96,5.43 175.09,6.41 185.85,0.85 -23.12,-39.19 -89.2,-60.71 -143.03,-34.69 -11.86,5.73 -39.86,20.5 -42.82,33.84zm91.93 -66.64c2.63,-0.87 5.47,0.55 6.34,3.18 0.87,2.62 -0.55,5.46 -3.18,6.34 -2.62,0.87 -5.46,-0.55 -6.33,-3.18 -0.88,-2.63 0.55,-5.46 3.17,-6.34zm-0.01 -21.16c2.62,-0.87 5.46,0.55 6.33,3.17 0.88,2.63 -0.54,5.47 -3.17,6.34 -2.63,0.87 -5.46,-0.55 -6.34,-3.17 -0.87,-2.63 0.55,-5.47 3.18,-6.34zm-0.02 -21.16c2.63,-0.88 5.47,0.54 6.34,3.17 0.87,2.63 -0.55,5.46 -3.18,6.34 -2.62,0.87 -5.46,-0.55 -6.33,-3.18 -0.87,-2.62 0.55,-5.46 3.17,-6.33zm-0.01 -21.17c2.63,-0.87 5.46,0.55 6.34,3.18 0.87,2.62 -0.55,5.46 -3.18,6.33 -2.63,0.88 -5.46,-0.55 -6.34,-3.17 -0.87,-2.63 0.55,-5.47 3.18,-6.34zm-0.02 -21.16c2.63,-0.87 5.47,0.55 6.34,3.17 0.87,2.63 -0.55,5.47 -3.17,6.34 -2.63,0.87 -5.47,-0.55 -6.34,-3.18 -0.87,-2.62 0.55,-5.46 3.17,-6.33zm-0.01 -21.17c2.63,-0.87 5.46,0.55 6.34,3.18 0.87,2.63 -0.55,5.46 -3.18,6.34 -2.62,0.87 -5.46,-0.55 -6.33,-3.18 -0.88,-2.63 0.54,-5.46 3.17,-6.34zm-0.01 -21.16c2.62,-0.87 5.46,0.55 6.33,3.18 0.88,2.62 -0.55,5.46 -3.17,6.33 -2.63,0.87 -5.47,-0.55 -6.34,-3.17 -0.87,-2.63 0.55,-5.47 3.18,-6.34zm-22.08 -30.07c-21.39,-11.72 -42.78,-23.43 -64.17,-35.14 0,0 -11.28,-9.51 15.37,-5.11 40.33,12.5 52.03,34.78 98.59,18.66 32.85,-11.38 62.02,-20.16 62.02,-20.16 0,0 27.66,-8.52 5.32,4.37 -22.34,12.89 -76.25,44.43 -76.25,44.43 -19.03,11.17 -25.34,1.45 -40.88,-7.05z"/>
  </g>
 </g>
</svg>
